<svg xmlns="http://www.w3.org/2000/svg" fill="none" viewBox="0 0 190 286"><path fill="#fff" fill-rule="evenodd" d="M152.516.432c.057.113-.339 1.411-.847 2.936-.508 1.524-1.976 4.912-3.274 7.566-1.299 2.653-2.936 5.59-5.026 8.187l-2.992-1.017c-1.694-.508-3.444-1.242-3.896-1.524-.677-.508-.226-1.13 2.541-3.5 1.863-1.638 5.646-5.195 8.413-7.905 2.766-2.71 5.081-4.8 5.081-4.743ZM88.094 3.085c2.37-.056 6.21.226 8.469.565 2.202.339 5.815 1.299 8.017 2.033 2.202.79 8.018 3.33 12.987 5.702 4.968 2.315 10.784 4.969 12.986 5.872 2.202.96 5.364 2.146 7.057 2.71 1.694.622 4.743 1.469 6.776 1.92 2.032.508 5.589.904 7.904.904 2.315 0 5.759-.283 7.623-.565 1.863-.339 3.5-.452 3.67-.282.169.113-.226.79-.847 1.468-.621.677-1.807 1.694-2.654 2.258-1.581 1.073-1.581 1.073-3.105-.056-.96-.678-2.428-1.186-3.614-1.13-1.468 0-2.484.452-3.557 1.581-.847.847-1.863 2.654-2.258 4.066-.565 2.145-1.073 2.71-3.219 3.782-1.468.735-5.138 1.638-8.977 2.146-4.065.621-7.735.847-9.881.565-1.863-.17-5.138-.734-7.34-1.186-2.202-.395-6.211-1.525-9.034-2.428-2.766-.903-8.243-2.88-12.139-4.404-3.896-1.524-8.977-3.275-11.292-3.84-2.767-.62-5.42-.903-7.623-.733-2.145.17-4.29.79-5.815 1.637-1.299.734-2.371 1.525-2.371 1.807 0 .226.451.226 1.016.056.508-.226 1.806-.564 2.823-.847.96-.282 1.807-.395 1.807-.225 0 .169-.734 1.242-1.638 2.427-.847 1.13-2.032 2.993-2.597 4.066-.565 1.072-1.525 3.387-2.145 5.081-.848 2.372-1.186 5.251-1.807 22.02l-2.541.339c-1.412.17-3.388.565-4.348.847-1.016.282-1.976.339-2.089.113-.113-.282-1.072-3.388-2.202-6.945-1.129-3.557-2.428-8.13-2.936-10.163-.564-2.202-.96-5.816-.96-9.034 0-3.952.34-6.267 1.186-8.751.678-1.864 2.428-5.138 3.896-7.284 1.468-2.202 4.291-5.307 6.324-7.001 2.032-1.638 5.815-4.065 8.469-5.364 2.597-1.299 6.267-2.654 8.187-3.049 1.863-.339 5.364-.621 7.792-.678Zm-8.413 23.32c1.298.225 3.444.733 7.396 2.088L82.56 33.18c-2.484 2.598-5.364 6.042-6.323 7.736-1.017 1.694-2.485 4.573-3.219 6.436-.79 1.864-1.75 5.42-2.202 7.905-.395 2.484-1.016 4.517-1.298 4.517-.283 0-.565-1.13-.678-2.54-.113-1.412.057-5.195.395-8.47.34-3.275 1.13-7.679 1.807-9.88.678-2.146 1.694-4.97 2.371-6.212.622-1.242 1.75-3.218 2.541-4.46 1.355-2.09 1.525-2.146 3.727-1.807Zm73.569-.227c.395 0 1.242.283 1.863.565.622.339 2.541 2.484 4.235 4.8 1.694 2.314 5.42 6.775 8.187 9.88 2.767 3.105 5.703 6.832 6.437 8.356.677 1.468 1.581 3.783 1.919 5.195.339 1.411.791 4.347.96 6.493.226 2.202.113 6.775-.226 10.163-.282 3.388-1.185 8.639-1.919 11.575s-2.485 7.622-3.783 10.445c-1.638 3.388-3.331 5.985-5.195 7.792-1.468 1.468-4.178 3.331-5.928 4.234-2.88 1.355-3.952 1.525-8.921 1.525-5.195 0-5.872-.113-8.695-1.694-1.694-.904-3.783-2.597-4.63-3.67-.903-1.073-2.371-4.009-3.275-6.493-.96-2.485-2.202-5.195-2.879-6.042-.621-.903-1.92-1.976-2.823-2.428-1.186-.564-3.445-.846-7.171-.846-3.727 0-5.759-.226-6.267-.678-.396-.395-.678-1.299-.678-1.976 0-.734.226-1.299.565-1.299.339 0 2.145.395 4.121.904 2.485.677 5.138.847 9.147.677 4.348-.17 6.098-.508 9.599-2.54l1.016 1.355c.508.677.96 2.145.96 4.968l1.524-2.258c.847-1.242 1.976-3.275 2.541-4.517.508-1.242 1.016-2.936 1.016-3.783 0-1.186.904-2.428 3.727-5.082 2.032-1.976 4.122-4.29 5.42-6.945l1.073 1.412c.847 1.13 1.073 1.242 1.073.452 0-.565-.226-1.581-.508-2.259-.396-.903-.283-2.202.282-4.121.452-1.525.79-3.05.79-3.388 0-.282-.79 1.073-1.806 3.105-1.13 2.202-3.332 5.138-5.534 7.397-2.484 2.484-4.517 4.008-6.21 4.63-1.694.564-3.275.734-4.743.508-1.242-.226-2.485-.904-2.936-1.525-.621-.903-.621-1.411 0-2.823.395-.903 2.032-3.726 3.613-6.21 1.581-2.485 3.84-5.93 5.025-7.623 1.186-1.694 3.049-3.783 4.122-4.63s2.767-1.694 3.67-1.863c1.525-.339 2.146.056 6.437 4.065 2.653 2.428 5.476 5.533 6.38 6.945 1.299 2.033 1.581 2.258 1.581 1.299 0-.734-.395-2.146-.96-3.106-.508-1.016-3.444-4.46-6.493-7.622-3.049-3.218-6.154-7.058-6.945-8.639-.79-1.524-1.637-4.008-1.92-5.476-.338-1.75-.338-3.614.057-5.195.339-1.412.96-2.88 1.468-3.275s1.242-.734 1.637-.734Zm-64.705 3.388c.113 0 1.073.282 2.146.621s1.92.847 1.863 1.13c-.056.282-.734.903-1.524 1.354-.79.452-3.106 2.428-5.139 4.404-2.089 1.92-4.799 4.912-6.04 6.606-1.3 1.694-2.88 4.404-3.558 5.929-.678 1.58-1.524 4.347-1.863 6.21-.339 1.864-.621 3.445-.621 3.558 0 .056-.508.113-1.13.113-.79 0-1.129-.396-1.129-1.242 0-.735.34-2.541.734-4.122.452-1.525 1.468-4.348 2.315-6.211.847-1.863 2.372-4.8 3.444-6.493 1.017-1.694 3.783-5.082 6.098-7.453 2.259-2.428 4.291-4.404 4.404-4.404Zm7.227 2.992c.79.17 2.936.847 7.961 2.654l-4.912 4.969c-2.766 2.71-5.872 6.324-7.057 8.017-1.13 1.694-2.541 4.235-3.162 5.646-.621 1.412-1.412 3.558-1.75 4.8-.565 2.145-.735 2.258-2.372 1.976-.96-.17-1.863-.452-1.976-.678-.113-.282.677-1.58 1.75-2.992s1.976-2.654 1.976-2.823c0-.17-.677-.113-1.58.056-.848.17-2.316.847-3.219 1.525-.903.62-2.371 1.806-3.275 2.597-.847.79-1.524 1.299-1.524 1.073 0-.283.734-1.525 1.58-2.823a200.297 200.297 0 0 0 2.146-3.275c.395-.678.17-.734-1.298-.395-1.017.226-1.864.226-1.864 0 0-.283.678-1.581 1.525-2.993.79-1.411 2.766-4.178 4.404-6.21 1.637-2.033 4.8-5.42 7.058-7.567 3.444-3.218 4.404-3.782 5.59-3.557Zm50.421 3.332.903 2.653c.508 1.468 1.637 3.67 2.484 4.913.847 1.185 1.581 2.37 1.581 2.653 0 .226-.395.395-.847.395-.451 0-1.863.622-5.364 2.824l-6.606-2.315c-3.67-1.242-7.17-2.541-7.791-2.88-1.073-.508-1.017-.678 1.129-2.767 1.863-1.806 2.992-2.37 6.211-3.048 2.202-.509 4.912-1.243 6.098-1.638l2.202-.79Zm-39.919.451c.339 0 3.162.621 6.267 1.412 3.106.79 6.381 1.411 7.34 1.411.904 0 2.033.226 2.541.565.452.282.678.565.565.565-.17.056-1.694.395-3.388.734-2.484.508-3.331 1.016-4.234 2.428-.622.96-3.558 3.33-6.494 5.307-2.992 1.92-6.888 4.686-8.751 6.098-1.863 1.355-4.291 3.331-5.364 4.347-1.13 1.017-2.654 1.92-3.388 1.977-.79.056-1.863.056-2.427.056a1.097 1.097 0 0 1-.96-1.073c0-.508.734-2.484 1.58-4.347.904-1.864 3.162-5.42 5.026-7.905 1.863-2.484 5.081-6.098 7.227-8.074 2.089-1.92 4.121-3.5 4.46-3.5Zm-57.026 1.073.678 3.557c.338 1.92 1.072 4.574 1.524 5.816.452 1.242 1.92 5.138 3.162 8.751 1.298 3.557 2.258 6.493 2.202 6.493-.113 0-1.13.734-2.315 1.581-1.412 1.017-2.71 2.767-4.065 5.59-1.13 2.258-2.315 5.646-2.71 7.566-.622 3.105-1.073 3.84-8.865 12.083l-.734-1.468c-.621-1.242-1.073-1.412-3.557-1.412-1.581.057-2.992.17-3.105.282-.113.113.056 4.856.451 10.559.339 5.702.678 11.236.678 12.365 0 1.637-.282 2.145-1.92 3.218-1.58 1.016-3.444 1.412-8.639 1.92-3.613.339-7 .847-7.453 1.129-.508.339 1.582.395 11.575-.113l-1.694 1.412c-1.298 1.072-2.371 1.468-4.234 1.468-1.581 0-3.275.451-4.404 1.129-1.017.621-2.09 1.637-2.372 2.258-.338.621-.451 1.581-.282 2.089.17.678-.17 1.243-1.13 1.694-.79.396-1.41 1.017-1.467 1.412 0 .395 1.355 1.073 2.936 1.581 1.637.451 2.992 1.073 3.105 1.411.057.283-1.92 2.315-4.347 4.517-2.485 2.146-4.517 4.235-4.517 4.63.056.395-.508.847-1.242 1.016-.678.113-2.09.226-3.106.283-1.524 0-1.863-.283-2.145-1.581-.113-.847-.396-5.364-.621-9.994-.226-6.211-.113-10.389.564-15.527.508-3.896 1.581-9.598 2.372-12.704.79-3.105 2.258-7.848 3.218-10.445.96-2.654 2.597-6.606 3.67-8.752 1.073-2.202 3.613-6.662 5.59-9.88 1.976-3.275 4.968-7.736 6.718-9.881 1.75-2.202 5.082-5.985 7.51-8.413 2.371-2.428 5.59-5.533 7.17-6.832 1.525-1.355 4.8-3.84 7.284-5.646l4.517-3.162Zm80.797 2.371-1.694 1.13c-.904.564-2.259 1.072-2.936 1.072-.734.057-1.299-.225-1.355-.508-.057-.282.395-.79.959-1.129.622-.282 1.977-.565 5.026-.565Zm-10.502 2.824c.508 0 3.613 1.242 6.832 2.766 3.726 1.694 8.017 3.162 11.461 3.953 2.993.62 5.646 1.185 5.759 1.185.17 0-1.129 2.202-2.879 4.912-1.807 2.71-3.219 5.026-3.275 5.082 0 .056-2.202-.282-4.856-.734-2.597-.452-5.815-1.299-7.057-1.863-1.243-.565-3.219-1.863-4.461-2.936-1.186-1.073-2.654-2.936-3.218-4.178-.565-1.243-1.073-3.219-1.073-4.348-.056-1.242.282-2.428.847-2.992.508-.452 1.355-.847 1.92-.847Zm-5.138 5.081c.056 0 .113.339.113.847 0 .452-1.073 1.412-2.372 2.146-1.355.734-5.138 3.444-8.469 5.928-4.63 3.5-6.437 4.574-7.622 4.46-1.468-.112-1.412-.225 1.524-2.258 1.75-1.186 6.154-4.178 9.881-6.662 3.726-2.485 6.832-4.46 6.945-4.46Zm.903 4.46 1.412 2.146c.734 1.186 1.581 2.259 1.806 2.428.283.113-1.75.565-4.46.96-2.71.339-6.041 1.073-7.453 1.58a73.968 73.968 0 0 1-4.235 1.412c-1.355.396-1.524.396-.847-.226.509-.395 1.243-1.072 1.638-1.524.451-.452.621-.508.451-.113-.225.395 2.315-.96 5.647-2.992l6.041-3.67Zm65.1 7.397c.226 0 .904.96 2.485 4.235l-2.259-2.541-.169 3.5c-.17 3.388-.226 3.388-.283-.846-.056-2.372.057-4.348.226-4.348Zm-74.585 1.75c0 .057-.113 1.186-.17 2.598-.169 2.258-.056 2.54.565 1.806.621-.79.734-.677.847 1.13.056 1.072.564 2.484 1.129 2.992.621.678 1.807 1.016 3.275 1.016 1.242 0 4.404-.564 7.057-1.185 2.598-.621 6.042-1.242 7.623-1.468 1.524-.17 3.444-.057 4.234.226 1.355.508 1.355.564-1.298 2.314-1.468.96-2.541 2.033-2.372 2.372.113.282-.226.79-.847 1.13-.621.281-1.637.564-2.258.564s-1.129-.17-1.129-.283c0-.169.451-.96 1.976-3.274l-1.694.338c-.96.17-3.388.622-5.364.904-2.032.339-5.025.62-6.662.62-1.638 0-2.993.17-2.993.396s.452.847 1.016 1.355c.565.508 2.372 1.638 4.122 2.484 1.694.847 4.743 2.033 6.776 2.598 2.145.677 5.476 1.072 8.187 1.129 3.557 0 5.025-.282 7.17-1.299 1.468-.734 2.654-1.185 2.654-1.016 0 .113-.226.621-.508 1.13-.339.451-1.638 1.129-2.993 1.524-1.298.395-4.178.677-6.323.677-2.202 0-5.364-.338-7.058-.79-1.75-.452-4.63-1.525-6.493-2.372-1.863-.903-5.195-2.597-11.293-6.041l-3.952.621c-2.202.282-4.009.508-4.009.508-.056-.056-.282-1.242-.847-5.138l1.186 1.807c1.073 1.75 1.186 1.807 3.218 1.299 1.186-.283 3.106-.565 6.381-.565l-.226-3.557c-.17-1.92-.396-4.065-.565-4.8-.282-.903-.113-1.298.621-1.467.565-.113.96-.226 1.017-.283Zm-19.084 1.638c.225 0 1.242.62 2.258 1.411 1.016.79 2.371 2.428 2.992 3.67s1.13 3.106 1.13 4.235c0 1.073-.452 2.654-1.017 3.444-.508.847-2.88 3.049-5.194 4.912-2.371 1.864-6.267 4.348-8.752 5.534-2.484 1.185-6.041 2.54-7.904 2.992-1.864.508-4.574.903-5.929.903-1.411 0-3.387-.282-4.404-.564-1.355-.452-2.145-1.242-3.162-3.275-.734-1.468-1.75-4.065-2.258-5.76-.565-1.806-.904-5.08-.904-7.621 0-2.936.34-5.026.847-5.929.79-1.355.847-1.355.396.847-.226 1.242-.396 3.5-.34 5.082 0 1.524.34 3.33.678 3.952.565.96.621.903.678-2.823l1.186 1.976c.62 1.073 1.58 2.258 2.089 2.654.508.395 1.92.734 3.049.734 1.468 0 4.178-1.073 8.751-3.444 3.67-1.864 6.776-3.219 6.945-3.05.113.17-.282 1.017-1.016 1.977-.678.903-1.243 1.92-1.243 2.258 0 .282.283.565.678.565.395 0 1.863-.395 3.275-.847 1.355-.508 3.67-1.694 5.081-2.597 1.355-.96 3.106-2.541 3.783-3.557.678-.96 1.242-2.202 1.242-2.767.057-.508-.734-1.75-1.637-2.654-.96-.96-1.694-1.863-1.694-1.976 0-.17.17-.282.395-.282Zm15.696 11.913c1.505-.075 2.541.207 3.105.847.452.508 2.372 1.976 4.291 3.275 2.767 1.807 3.388 2.484 2.993 3.162-.283.451-.508 1.637-.508 2.653 0 1.581.282 1.977 2.089 2.767 1.242.508 3.105.79 4.46.678 1.468-.113 2.202 0 2.033.395-.17.282-1.129 1.694-2.089 3.049-.904 1.411-1.864 2.936-2.089 3.387-.17.509.169 1.92.79 3.162.621 1.243 1.863 3.332 2.767 4.63.903 1.355 2.089 2.428 2.597 2.372.565 0 1.468-.452 1.976-.96.565-.565 1.92-3.727 2.993-7.058 1.072-3.331 2.145-6.041 2.371-6.041.226 0 1.299 2.597 2.371 5.759 1.638 4.912 2.315 6.21 4.517 8.412 1.807 1.751 3.557 2.88 5.703 3.558 2.202.734 3.388 1.524 4.234 2.766.622.96 2.146 2.315 3.388 3.049 1.242.678 3.388 1.468 4.743 1.694 2.145.395 2.823.847 4.573 3.275 1.186 1.524 2.372 3.387 2.711 4.065.395.734.621 1.411.508 1.581-.057.169-1.299.056-2.654-.282-1.412-.283-5.759-.904-9.599-1.412-3.895-.452-8.412-.847-10.05-.847-2.484 0-3.162-.226-4.234-1.524-.678-.791-1.581-1.807-1.976-2.259-.452-.452-.509-.847-.113-1.016.282-.17 3.952-.621 8.187-1.016 4.178-.396 7.622-.904 7.622-1.13 0-.226-2.767-.395-6.098-.395-3.331.057-7.453.282-9.147.508-2.71.395-3.387.283-5.081-.847-1.13-.677-2.993-1.524-4.235-1.863a34.75 34.75 0 0 0-3.952-.79c-1.412-.113-2.146-.791-4.009-3.501-1.242-1.863-2.484-4.404-2.71-5.646-.226-1.242-1.299-4.065-2.315-6.21-1.129-2.429-1.976-5.195-2.146-7.059-.169-1.75-.959-4.46-1.75-6.097-.847-1.694-2.033-3.162-2.767-3.445-.677-.225-2.936-.451-5.025-.395-2.032 0-3.67-.17-3.5-.395.113-.226-.678-.847-1.807-1.412-1.073-.508-1.92-1.129-1.863-1.355.056-.226 1.016-.62 2.032-.903a85.831 85.831 0 0 1 3.162-.79c.678-.17 2.259-.34 3.501-.396Zm39.918.565c.734-.057.904.226.734 1.186-.113.733-.677 2.314-2.089 5.815l-1.129-1.412c-.621-.79-.96-1.75-.791-2.145.17-.395.283-1.186.17-1.807-.057-.677.282-1.185 1.016-1.298.621-.17 1.581-.34 2.089-.34Zm36.474 4.178c.17.903.283.96.678.282.395-.62.508-.17.508 1.412 0 2.089-.056 2.202-.847 1.129-.452-.621-.847-.96-.847-.734.057.226.339 1.073.734 1.807.565 1.129.565 1.524-.113 2.315-.508.451-.621.847-.282.847.282 0 .847-.565 1.186-1.299.621-1.13.677-.96.621 1.581-.057 1.75.282 3.388.903 4.347.508.847.734 1.525.508 1.525-.226 0-.056.395.452.96.452.508.847 1.355.903 1.863.057.508.339 1.637.678 2.597.282.904.847 2.88 1.186 4.348.338 1.468.508 2.992.338 3.388-.113.395-.395 2.258-.847 7.509l2.654 2.823c2.541 2.654 2.484 2.597-.508-.282-1.807-1.751-3.049-3.388-2.88-3.67.283-.339.113-.396-.282-.17-.395.283-1.524-.282-2.823-1.411-1.129-1.017-3.162-2.71-4.517-3.67-2.258-1.694-2.371-1.976-2.089-3.953.226-1.242 0-3.161-.508-4.63-.791-2.427-.734-2.71.508-5.08.678-1.412 1.75-4.01 2.315-5.816.565-1.807 1.242-3.275 1.468-3.275.226.056.282-.226.169-.508-.169-.34-.113-1.638.113-2.993.226-1.411.452-1.92.621-1.242Zm-86.33-.282c.17 0 1.525.564 3.05 1.242 2.37 1.129 2.653 1.411 2.314 2.71-.169.734-.451 2.145-.62 3.105-.227 1.525-.114 1.412 1.298-.96.903-1.468 1.976-2.992 2.428-3.387.677-.621.734-.621.113.113-.339.451-.847 2.54-1.073 4.63-.339 2.936-.226 3.839.282 3.839.395 0 .734-.452.678-1.016 0-.508.395-2.033.847-3.388.508-1.299 1.298-2.823 1.75-3.388.847-.903.96-.903 1.92.17.564.62 1.411 2.315 1.919 3.783.509 1.468.734 2.992.509 3.387-.264.452-.17.546.282.283.452-.283.734-.113.734.451 0 .621-.282.678-1.129.283-.904-.452-1.073-.96-.847-2.259.113-.96.113-1.694 0-1.694-.17 0-.847 1.186-1.581 2.654-1.129 2.428-1.242 3.5-1.186 10.615 0 4.347.282 8.977.565 10.276.339 1.581.282 2.315-.057 2.202-.339-.113-1.863-.452-3.387-.678-2.372-.395-2.767-.339-2.541.339.226.452 1.298 1.073 2.371 1.412 1.129.282 2.259.79 2.541 1.129.226.339.226.339-.113.113-.339-.226-.847-.396-1.129-.396-.339 0-.057.452.621.96.96.847 1.016 1.13.395 1.694-.395.395-.734.452-.734.17 0-.377-.376-.377-1.129 0-.904.451-1.073.395-.847-.283.226-.677-.395-.903-2.823-1.129-1.807-.169-2.993-.565-2.823-.847.113-.339-.113-.452-.565-.282-.508.113-1.073-.057-1.298-.452-.226-.395-.283-4.122-.226-8.3.17-5.815-.057-8.525-.734-11.292-.565-2.033-1.92-5.533-3.05-7.792-1.128-2.258-1.919-4.178-1.75-4.347.113-.113 1.243-.96 2.485-1.92 1.186-.96 2.315-1.75 2.54-1.75Zm-6.323 5.194c.395.395 1.355 2.597 2.089 4.969.79 2.315 1.637 5.985 1.92 8.187.338 2.145.734 6.662.903 9.993.17 3.332.17 6.098.056 6.098-.169 0-1.863-.96-3.839-2.089-1.92-1.129-3.952-2.484-4.517-2.992-.564-.452-1.242-2.033-1.58-3.388-.283-1.412-1.187-3.275-1.977-4.122-.734-.847-1.75-1.524-2.202-1.524-.508 0-1.073.282-1.299.677-.225.452-.564-.169-.79-1.524-.226-1.242-.395-3.67-.452-8.47l4.856-2.54c2.654-1.412 5.082-2.88 5.42-3.275.508-.564.734-.564 1.412 0Zm-32.86 4.969c.169 0 .62.113 1.128.282.452.113.734.565.621.96-.112.395-.62 2.428-2.032 8.356h-2.54c-1.412 0-2.542-.282-2.542-.564 0-.34.509-1.638 1.186-2.993.621-1.299 1.807-3.218 2.54-4.235.791-1.016 1.525-1.806 1.638-1.806Zm19.253 1.75c.056-.056.113 1.412.056 3.162 0 2.428-.113 2.88-.452 1.863-.395-1.355-.395-1.355-.451-.17-.057.735-.34 1.3-.621 1.3-.34 0-.734-.283-.847-.565-.17-.339-.678-.452-1.13-.283-.508.113-.847 0-.847-.282 0-.339.226-.564.565-.564.282 0 .565-.79.565-1.694 0-.96-.339-1.807-.734-1.977-.396-.112-.226-.225.282-.282.565 0 1.016.339 1.016.847 0 .452.17.904.396 1.073.226.113.79-.226 1.298-.678.734-.847.734-.903-.17-.508-.507.17-1.015.113-1.128-.17-.057-.281.395-.62 1.016-.733.621-.17 1.13-.339 1.186-.339Zm34.215.79c.396.113 1.581 1.694 2.711 3.501 1.072 1.807 2.258 4.517 2.653 6.098.395 1.524.734 5.364.678 8.469 0 4.574-.17 5.816-.96 6.606-.565.565-1.242 1.017-1.525 1.017-.338 0-.903-.452-1.242-1.017-.395-.621-.451-1.298-.169-1.807.282-.508.508-1.919.508-3.274.057-1.92-.282-2.71-3.331-5.759l-.057-7.058c0-5.533.17-7.001.734-6.775Zm-42.064.34c.113-.057.621.056 1.13.282.903.282.903.395-.113 1.016-.621.395-1.75.621-3.896.17l1.355-.735c.79-.395 1.468-.734 1.524-.734Zm1.13 2.258c.395-.057.734.17.734.508 0 .282-.565.678-1.299.903-.677.17-1.637.113-2.089-.113-.678-.395-.565-.564.565-.847.734-.225 1.693-.451 2.089-.451Zm5.42 3.049c.96.17 1.807.338 1.863.395.057.113.226 1.355.452 2.823.226 2.033.17 2.597-.395 2.371-.396-.169-.17.057.451.565 1.073.903 1.073.903-.169.903-.678 0-1.242-.225-1.242-.451s-1.694-.339-3.67-.283c-2.202.113-3.67-.056-3.67-.395s.677-.621 3.105-.677l-1.411-.396c-.79-.225-1.468-.225-1.581.057-.057.226-.508.452-.96.452-.734 0-.734-.226-.17-1.13.396-.621 1.017-1.129 1.412-1.129s.734.226.734.565c0 .282.452.226 1.13-.17.62-.395 1.072-1.072 1.016-1.58-.057-.452.225-1.13.62-1.525.396-.339 1.525-.508 2.485-.395Zm-31.167.847c.565.282.96 1.016.904 1.524-.057.565-.509 1.073-1.017 1.186-.451.113-1.016-.226-1.242-.734-.226-.452-.282-1.242-.056-1.694.226-.621.564-.678 1.411-.282Zm131.556-.734.226 2.484c.225 1.976 0 3.105-1.299 5.477-.847 1.637-2.541 3.783-3.783 4.742-1.242 1.017-3.557 2.259-5.082 2.88-1.976.734-3.613.96-5.363.734-1.412-.169-3.445-.678-4.517-1.129-1.13-.452-2.315-1.129-2.654-1.581-.565-.621.056-.904 3.501-1.468 2.315-.395 5.702-1.242 7.453-1.92 1.806-.677 4.291-2.032 5.533-2.992s3.049-2.993 4.122-4.517l1.863-2.71ZM65.735 107.03c2.428 0 5.646.452 8.469 1.186 2.484.678 8.018 3.049 12.422 5.251 4.347 2.258 9.146 4.517 10.727 5.081 1.525.622 3.614 1.807 4.63 2.654 1.016.904 2.541 1.75 3.388 1.92 1.185.226 1.863 0 2.879-.96.678-.734 1.355-1.75 1.525-2.202.113-.452 1.92-1.637 4.065-2.597 2.089-.96 4.686-1.92 5.816-2.146 1.129-.226 3.049 0 4.629.508 1.468.452 2.711 1.13 2.711 1.412 0 .339-.847.734-1.864.903-1.016.226-4.065 1.13-6.775 1.976-2.71.904-5.646 1.638-6.493 1.638-.847 0-1.355.169-1.129.395.226.282.113.791-.283 1.186-.564.621-.451.734 1.581.79l-1.129.452c-1.073.452-1.073.508.113.508.734.057 1.299.339 1.299.621 0 .339-.396.565-.847.565-.508 0-.734.282-.565.564.113.339-.169.734-.734.904-.508.226-1.807.226-2.823 0-1.016-.17-1.75-.508-1.581-.734.113-.226-2.146-.339-4.969-.226-3.105.169-5.59 0-6.267-.395-.62-.339-1.186-1.017-1.298-1.468-.057-.508.225-.904.734-.904.451 0 .677-.226.564-.564-.17-.283-.056-.565.282-.565.283 0 .565-.395.565-.847 0-.452-.339-.734-.734-.677-.395.113-2.992-.847-5.759-2.146-2.823-1.355-8.356-3.557-12.309-5.025-3.952-1.412-9.598-3.275-12.534-4.122s-5.195-1.75-4.969-1.919c.226-.226.96-.509 1.581-.678.621-.113 2.88-.282 5.082-.339Zm-9.881 2.202c.734 0 4.009.791 7.17 1.694 3.219.96 8.921 2.823 12.704 4.235 3.84 1.355 7.792 2.879 10.898 4.291l-3.388-.226c-1.863-.113-7.227-.903-11.857-1.694-4.686-.79-12.196-1.863-16.656-2.315-4.517-.451-8.244-.903-8.357-1.016-.056-.113 1.75-1.242 3.953-2.541 2.258-1.355 4.742-2.428 5.533-2.428Zm-9.26 6.606c1.186.113 4.574.452 7.566.734 2.936.339 9.203 1.13 13.946 1.864 4.743.677 8.639 1.524 8.639 1.806 0 .396-2.767.452-7.792.226-5.082-.226-7.284-.169-6.324.17.734.282 2.654.79 4.235 1.185 2.767.565 2.597.621-6.493 1.581-5.138.508-12.252 1.468-15.81 2.146-3.613.677-6.662 1.072-6.775.903-.17-.169 0-1.073.395-1.976.396-.96.509-1.694.283-1.694-.226.057-1.017.621-1.807 1.299-.79.677-1.13.847-.79.395.282-.452 1.411-1.976 2.427-3.331 1.073-1.355 2.88-3.106 4.01-3.953 1.637-1.185 2.653-1.468 4.29-1.355Zm82.208 3.049c.904-.056 2.315.565 3.275 1.355.904.791 1.694 1.694 1.694 1.976 0 .339-2.541.565-6.38.622-3.501 0-6.606.169-6.888.338-.339.17-1.412.17-2.428-.056-1.017-.17-1.807-.508-1.864-.734 0-.226.734-.621 1.581-.847.847-.226 3.332-.903 5.534-1.525 2.145-.621 4.629-1.129 5.476-1.129Zm-24.278 1.129c.734 0 1.75.226 2.315.396.96.395.96.451.169 1.129-.734.565-1.185.508-2.315-.169-.79-.452-1.411-.96-1.411-1.13 0-.169.564-.226 1.242-.226Zm23.883 3.896c4.517 0 7.735.226 7.905.565.169.339-.113.395-.678.169-.734-.338-.903-.226-.621.396.226.451.791 2.145 1.299 3.67.451 1.581.79 3.444.395 5.646l-.395-1.412c-.395-1.242-.565-1.298-1.073-.452-.565.791-1.299.678-7.396-1.355-3.727-1.298-6.945-2.371-7.058-2.484-.17-.113 0-.565.395-1.073.621-.734.903-.734 4.404 1.017l-1.411-1.525c-.791-.847-1.864-1.637-2.428-1.75-.508-.17-.96-.508-.96-.847 0-.339 2.879-.565 7.622-.565Zm-57.083.847 1.525 3.67c.847 2.033 2.315 7.284 3.275 11.744.96 4.404 2.371 9.599 3.162 11.575.79 1.92 2.201 4.46 3.105 5.646 1.073 1.299 2.484 2.315 3.783 2.71 1.524.452 2.823.452 4.404.057 1.524-.396 3.049-1.468 4.8-3.332 1.41-1.468 4.968-5.872 7.904-9.767 2.936-3.84 7.679-9.43 15.64-17.786l7.509 2.541c4.122 1.411 7.622 2.823 7.735 3.105.17.339-.395 2.033-1.185 3.84-.847 1.75-1.638 3.218-1.751 3.218-.169 0-.169-.508 0-1.129.113-.621.113-1.129 0-1.129-.169 0-1.524.847-2.992 1.919-1.468 1.017-4.348 2.767-6.324 3.84a449.877 449.877 0 0 1-8.187 4.404c-2.484 1.355-6.041 3.331-7.904 4.46-1.864 1.129-3.671 2.033-3.953 2.089-.339 0-1.355.734-2.258 1.581-.96.847-3.219 2.654-5.082 3.952-1.863 1.356-4.234 2.711-5.25 3.106-1.017.339-2.541.452-3.389.282-.846-.226-2.54-1.298-3.726-2.428-1.186-1.072-3.5-3.783-5.138-5.985-1.637-2.145-3.952-4.855-5.082-5.928-1.185-1.073-1.92-1.581-1.637-1.073.282.452 1.637 2.315 3.05 4.065 1.354 1.807 2.37 3.332 2.257 3.445-.169.112-4.008-1.581-8.469-3.727-4.517-2.145-10.22-5.251-12.704-6.945-2.484-1.637-5.984-4.291-7.791-5.872-1.75-1.581-3.388-2.879-3.5-2.879-.17 0-.283.451-.283 1.016 0 .791-.226.734-1.412-.452-.79-.79-1.694-2.089-2.032-2.936-.283-.847-.847-1.524-1.242-1.411-.452.056-.735-.791-.791-5.703l3.727-.847c2.032-.451 6.267-1.242 9.372-1.75 3.105-.452 6.493-.96 7.622-1.073 1.073-.113 4.517-.169 13.212-.113Zm72.215-.056c2.823.226 7.227.734 9.711 1.185 2.485.396 4.178.791 3.783.791-.452.056-.677.96-.677 4.856l-1.581-2.146c-1.186-1.637-1.864-2.089-2.936-1.976-1.186.169-1.468.565-1.976 4.686l-1.299-2.089c-1.073-1.863-1.525-2.145-5.477-2.145l.847 5.081h-2.258c-2.259 0-2.315-.056-3.106-2.823-.508-1.524-.847-2.936-.847-3.105 0-.17.17-.226.396-.226.225.056.621.056.846 0 .226 0 .226-.565-.056-1.242-.508-1.242-.508-1.242 4.63-.847Zm17.051 2.371c1.242.226 2.71.621 3.219.904.564.225 1.016.847 1.016 1.298a.868.868 0 0 1-.847.847c-.508 0-1.016.395-1.129.847-.226.678-.621.508-1.581-.677-.734-.847-1.638-2.033-2.146-2.598-.734-.96-.677-1.016 1.468-.621Zm-58.155 1.073c0 .056-.508 2.258-1.242 4.856-.734 2.597-1.186 4.855-1.017 5.025.113.169.452-.226.621-.847.226-.621 1.13-2.88 1.977-5.082 1.185-3.162 1.693-3.896 2.54-3.726.565.113 1.638.395 2.315.677.96.396 1.186.791.904 1.807-.17.678-1.073 2.823-1.976 4.799-1.243 2.767-2.09 3.783-4.009 4.913-1.581.903-3.275 1.411-4.912 1.411-1.581 0-3.275-.452-4.404-1.129-1.017-.621-1.807-1.299-1.807-1.525 0-.225.564-2.653 2.54-10.332l3.106-.057c1.694 0 3.557-.225 4.178-.451.565-.283 1.129-.396 1.186-.339Zm-24.11 10.445c.34 0 1.412 1.243 2.372 2.711.96 1.468 1.976 3.67 2.371 4.912.34 1.242.96 2.653 1.356 3.105.677.734.79.678.79-.565-.056-.79.282-1.693.677-2.089.565-.564.565-.847 0-1.411-.62-.565-.677-.508-.338.395.339.847.282 1.016-.226.734-.395-.226-.678-.847-.678-1.299 0-.451.283-.846.678-.846.395-.057 1.016.338 1.412.846.395.452.508 1.186.282 1.581-.264.452-.17.546.282.283.452-.283.96 0 1.299.677.282.621.338 1.468.113 1.863-.264.452-.17.546.282.283.508-.339.903.451 1.299 2.823.338 1.75.508 3.783.282 4.517-.226.96-.734 1.242-1.976 1.242-.96 0-2.146-.169-2.654-.395s-1.807-1.581-2.88-2.993c-1.016-1.411-2.37-4.178-2.992-6.211-.565-2.032-1.186-4.573-1.355-5.646-.113-1.072-.452-2.54-.621-3.218-.282-.847-.17-1.299.226-1.299Zm-44.378 1.694c.395 0 1.355.395 2.145.904 1.13.79 1.243 1.016.565 1.411-.508.282-1.411.508-2.145.508-.96 0-1.243-.338-1.243-1.411 0-.791.283-1.412.678-1.412Zm-6.776 1.694c.396 0 1.356.621 3.558 2.823l-1.412.339c-.79.226-1.75.226-2.145 0-.396-.169-.678-.96-.678-1.75 0-.791.282-1.412.678-1.412Zm122.24 4.009c.79 0 1.298.282 1.298.79 0 .621-.621.847-2.258.847-1.242 0-2.315-.226-2.428-.508-.056-.282.395-.621 1.016-.79.622-.113 1.694-.283 2.372-.339Zm-6.888.508c1.355 0 1.976.282 1.976.847 0 .621-.621.847-1.976.847-1.412 0-1.977-.226-1.977-.847 0-.565.565-.847 1.977-.847Zm-5.364.565c1.242 0 2.258.282 2.258.564 0 .339-.452.565-1.016.565-.508 0-1.525.169-2.259.282-.847.226-1.242.057-1.242-.564 0-.622.621-.847 2.259-.847Zm-36.7 11.857c.225 0 .282.451.113 1.016-.113.508-.509 1.976-.79 3.218-.34 1.242-.396 3.727-.227 5.533.17 1.751.847 4.291 1.468 5.647.621 1.298 1.129 2.427 1.129 2.54 0 .057-.508.113-1.129.113s-2.597-.395-4.404-.903c-1.75-.508-4.46-1.468-5.985-2.089-2.089-.904-3.049-1.751-3.84-3.331-.564-1.186-.959-2.202-.903-2.315.113-.113 1.186-.452 2.428-.791 1.243-.339 3.783-1.807 5.647-3.162 1.863-1.411 4.008-3.218 4.742-4.008.734-.791 1.525-1.468 1.751-1.468Zm-78.99 5.589 1.185.17c.791.113 1.356.79 1.638 1.863.282.96.226 1.976-.057 2.258-.338.339-.903-.338-1.637-1.863l-1.13-2.428Zm5.307.057c.79 0 1.525.451 1.75 1.016.226.621 0 1.242-.677 1.694-.621.395-1.412.734-1.807.734s-.677-.734-.677-1.75c0-1.412.226-1.694 1.411-1.694Zm41.274 1.524 2.202.395c1.242.283 3.67 1.186 5.364 2.033 1.693.847 4.63 2.597 6.493 3.839 1.863 1.243 4.46 2.767 5.759 3.445 1.355.677 4.404 1.75 6.775 2.427 2.54.734 6.098 1.243 8.469 1.299 3.275 0 4.348-.226 5.646-1.186.904-.677 1.638-1.806 1.694-2.653.113-.847-.113-1.525-.395-1.525-.339 0-.564.452-.564 1.016 0 .791-.396.622-1.864-.79-1.016-.96-2.653-2.202-3.67-2.654-1.524-.79-1.807-1.242-1.807-2.936 0-1.355.226-1.976.847-1.976.452 0 2.146.734 3.783 1.581 1.638.903 4.009 2.371 5.251 3.388 1.242.96 2.823 2.71 3.501 3.896.677 1.185 1.242 2.936 1.299 3.839 0 1.073-.452 2.146-1.243 2.936-.734.621-2.315 1.524-3.557 1.92-1.524.451-4.234.621-8.187.395-4.121-.226-7.509-.791-11.01-1.807-2.823-.847-7.17-2.541-9.767-3.726-3.953-1.92-5.026-2.71-7.34-5.703-1.469-1.92-3.784-4.404-5.195-5.477l-2.484-1.976Zm-35.176 3.614c.226 0 .96 1.129 1.694 2.484.678 1.412 1.13 2.654.96 2.823-.17.169-1.299.452-2.541.678-2.146.282-2.315.225-3.218-1.694-.565-1.129-1.073-2.202-1.13-2.372-.056-.113.735-.621 1.807-1.072 1.073-.452 2.146-.791 2.428-.847Zm-5.364 2.258c.057 0 .621.96 1.242 2.202.847 1.694.96 2.372.452 2.541-.395.113-1.355.339-2.146.452-1.129.169-1.693-.17-3.952-3.557l2.146-.791c1.129-.452 2.145-.847 2.258-.847Zm76.449 1.638c.565.338 1.355 1.072 1.751 1.693.338.678 1.072 1.186 1.524 1.186.734 0 .734.057 0 .508-.452.339-1.016.565-1.242.565-.282 0-.339-.17-.226-.395.169-.226-.226-1.073-.79-1.864-1.073-1.355-1.073-1.355-.847-.113.169.678.169 1.243 0 1.243-.17 0-.452-.734-.734-1.694-.396-1.525-.339-1.638.564-1.129Zm-82.095 1.242c.339-.057 1.073.564 1.524 1.298.847 1.355.791 1.468-.677 1.751-1.13.225-1.863.056-2.597-.678-.565-.565-1.017-1.242-1.13-1.411-.056-.226.396-.509 1.017-.678.62-.113 1.468-.282 1.863-.282Zm-4.404 1.581c.17 0 .621.395 1.016.847.565.734.452.903-.564 1.242-.734.169-1.694.113-2.146-.113-.734-.339-.677-.565.283-1.186.62-.395 1.242-.79 1.411-.79Zm8.752 7.622c2.315.113 5.25.96 9.034 2.541 3.105 1.298 5.815 2.484 6.04 2.71.227.226-.903.565-2.54.79-1.58.17-4.065.904-5.477 1.638-1.411.677-3.557 1.976-4.799 2.936-1.694 1.242-2.654 1.581-3.952 1.355-.904-.113-4.122-1.299-7.058-2.597-2.936-1.243-5.759-2.654-6.21-3.162-.735-.734-.735-.904.282-1.694.62-.452 1.92-1.242 2.823-1.807.96-.508 3.218-1.355 5.081-1.92 2.259-.677 4.574-.959 6.776-.79Zm-17.108 7.058c.282 0 1.637.847 3.162 1.919 1.468 1.017 4.29 2.372 6.323 3.049 2.033.621 4.46 1.355 5.364 1.581 1.355.283 2.823-.226 6.945-2.258 2.823-1.412 6.38-2.823 7.905-3.162 1.468-.282 3.5-.395 4.517-.17 1.75.396 1.637.452-1.412.904-1.807.226-4.686 1.073-6.38 1.863-1.694.847-4.574 2.597-6.324 3.952-1.807 1.412-3.614 2.541-3.952 2.541-.395 0-2.259-.508-4.122-1.185-1.863-.622-5.759-2.259-8.582-3.671-2.88-1.355-5.307-2.823-5.364-3.274-.056-.396.226-1.017.678-1.412.451-.339 1.016-.677 1.242-.677Zm48.444 6.549c1.411.226 3.162.734 5.364 1.92h-1.694c-.904 0-2.654.282-3.783.621-1.186.282-3.331 1.637-4.743 2.936-1.411 1.299-3.162 3.388-3.84 4.63-1.016 1.92-1.185 3.218-1.185 8.638 0 4.009-.226 6.268-.565 6.155-.282-.113-1.298-1.581-2.145-3.219-1.412-2.653-1.581-3.557-1.355-6.493.17-2.202.847-4.517 1.976-6.775.903-1.863 2.428-4.122 3.275-4.969.903-.903 2.653-2.145 3.896-2.71 1.693-.79 2.936-.96 4.799-.734Zm3.67 3.614c.62 0 3.896 2.089 7.283 4.686 3.332 2.541 6.663 5.025 7.34 5.477.622.452-.451-.904-2.484-2.993-2.032-2.089-4.573-4.347-5.646-5.025-1.13-.677-1.638-1.298-1.242-1.468.395-.113 2.315.565 4.234 1.525 2.146 1.016 5.025 3.218 7.453 5.533 2.202 2.146 5.42 6.041 7.17 8.695 1.751 2.597 4.461 7.453 6.042 10.671 1.581 3.275 3.783 8.47 4.856 11.575 1.13 3.105 2.428 7.509 2.88 9.768.451 2.258.79 6.211.79 8.751 0 2.541-.339 6.55-.79 8.865-.452 2.371-1.186 5.251-1.638 6.493-.451 1.242-1.355 3.388-2.032 4.686-.621 1.299-2.033 3.331-3.05 4.517-1.072 1.186-2.597 2.315-3.387 2.541-.847.226-2.033.169-2.654-.169-.62-.283-1.298-1.356-1.468-2.372-.226-1.355.395-4.065 2.259-9.881 1.411-4.404 2.597-8.977 2.597-10.163 0-1.185-.395-3.5-.903-5.251-.509-1.693-1.356-3.839-1.977-4.799-1.016-1.637-1.016-1.694.057-2.654.62-.564 1.016-1.185.847-1.411-.113-.226-1.581.452-3.218 1.524-1.638 1.13-5.252 3.896-8.075 6.211-2.766 2.372-5.702 4.686-6.493 5.138a21.601 21.601 0 0 1-2.371 1.299c-.621.226-1.016.113-1.016-.339 0-.395 1.411-3.105 3.105-6.098 1.75-2.936 2.993-5.42 2.823-5.477-.17-.056-1.242 1.186-2.428 2.823-1.185 1.638-3.105 4.574-4.234 6.494-1.13 1.919-2.09 3.726-2.09 3.952 0 .226-.677 1.129-1.524 1.976-1.073 1.016-2.202 1.524-3.388 1.524-1.298 0-2.484-.508-3.952-1.863-1.186-1.073-2.936-3.557-3.952-5.533-.96-1.976-2.09-4.969-2.428-6.719-.395-1.694-.565-4.856-.452-7.058.113-2.145.565-4.686 1.073-5.646.621-1.298 1.186-1.694 2.428-1.694 1.091 0 1.976.471 2.654 1.412.79 1.073 1.129 2.823 1.298 7.058.17 3.105.339 5.815.395 5.928 0 .169.283-.339.509-1.129.282-.734.451-3.783.508-6.776 0-2.936-.226-6.493-.565-7.904-.282-1.355-1.976-5.59-3.726-9.316-2.767-5.759-3.275-7.34-3.445-10.728-.15-2.635.057-4.893.622-6.775.508-1.525 1.863-3.896 5.194-7.792l1.807 2.766c1.016 1.525 2.654 4.687 3.726 7.002 1.073 2.371 2.09 4.742 2.315 5.364.17.621.508 1.016.678.846.17-.112-.113-1.637-.678-3.387-.508-1.694-1.694-4.63-2.653-6.493-.904-1.864-2.146-4.066-2.71-4.912-.565-.847-1.017-1.694-.904-1.864.056-.226.734-.226 1.524-.056.79.169 3.614 2.541 6.494 5.533 2.823 2.936 6.719 7.566 8.695 10.333 1.976 2.823 3.387 4.46 3.162 3.67-.226-.734-1.186-2.936-2.146-4.8-1.167-2.258-3.84-5.495-8.018-9.711-4.573-4.686-5.928-6.38-5.081-6.38Z" clip-rule="evenodd"/><path stroke="#121212" stroke-width=".563" d="M86.456 74.171c1.58-.79 3.218-1.976 3.67-2.654.508-.677.96-1.298 1.073-1.298.056 0 .112.847.112 1.863 0 1.524-.677 2.428-4.121 5.76-2.88 2.822-5.42 4.629-8.865 6.323-2.653 1.298-6.323 2.766-8.187 3.274-1.863.452-4.46.848-5.759.848-1.355 0-3.049-.226-3.839-.565-.79-.282-1.412-.734-1.412-.96 0-.282 1.355-1.186 2.993-2.09 1.58-.903 4.065-2.54 5.477-3.725 1.411-1.13 3.218-2.485 4.121-2.993 1.299-.847 1.525-.847 1.525-.113 0 .452-.395 1.638-.847 2.54-.678 1.3-.678 1.751-.113 1.92.339.114 1.468-.112 2.371-.508.96-.338 3.332-1.92 5.364-3.444 2.033-1.524 4.912-3.444 6.437-4.178ZM148.959 88.004c.677-1.242 4.234-5.42 8.017-9.316 3.727-3.896 6.945-7.058 7.115-6.945.169.057-.339 1.242-1.13 2.541-.847 1.355-3.726 4.856-6.38 7.792-2.879 3.105-5.646 6.775-6.606 8.751-1.298 2.654-1.637 4.122-1.637 6.945 0 1.92.282 4.122.564 4.912.339.791.452 1.412.283 1.412-.17 0-.508-.508-.847-1.13-.283-.621-.791-2.371-1.129-3.952-.396-1.92-.396-3.783 0-5.759.338-1.637 1.129-4.009 1.75-5.25ZM97.522 115.445c-.451-.283-.677-.735-.508-1.073.226-.283.96-.452 1.694-.339.734.169 1.863.734 2.484 1.355.678.678.847 1.186.452 1.129-.395 0-.734-.169-.734-.395 0-.282-.565-.395-1.299-.282-.677.056-1.637-.113-2.089-.395Z"/></svg>